<mxfile host="app.diagrams.net" agent="Mozilla/5.0 (Windows NT 10.0; Win64; x64) AppleWebKit/537.36 (KHTML, like Gecko) Chrome/127.0.0.0 Safari/537.36" version="24.7.14">
  <diagram name="PÃ¡gina-1" id="pUwCGXJUzEvcYIjd5diM">
    <mxGraphModel dx="1772" dy="451" grid="1" gridSize="10" guides="1" tooltips="1" connect="1" arrows="1" fold="1" page="1" pageScale="1" pageWidth="827" pageHeight="1169" math="0" shadow="0">
      <root>
        <mxCell id="0" />
        <mxCell id="1" parent="0" />
        <mxCell id="iOgEmEjlX35Pbioyctjd-1" value="Etapa" style="swimlane;fontStyle=1;align=center;verticalAlign=top;childLayout=stackLayout;horizontal=1;startSize=26;horizontalStack=0;resizeParent=1;resizeParentMax=0;resizeLast=0;collapsible=1;marginBottom=0;whiteSpace=wrap;html=1;" vertex="1" parent="1">
          <mxGeometry x="280" y="70" width="160" height="86" as="geometry" />
        </mxCell>
        <mxCell id="iOgEmEjlX35Pbioyctjd-2" value="+ field: type" style="text;strokeColor=none;fillColor=none;align=left;verticalAlign=top;spacingLeft=4;spacingRight=4;overflow=hidden;rotatable=0;points=[[0,0.5],[1,0.5]];portConstraint=eastwest;whiteSpace=wrap;html=1;" vertex="1" parent="iOgEmEjlX35Pbioyctjd-1">
          <mxGeometry y="26" width="160" height="26" as="geometry" />
        </mxCell>
        <mxCell id="iOgEmEjlX35Pbioyctjd-3" value="" style="line;strokeWidth=1;fillColor=none;align=left;verticalAlign=middle;spacingTop=-1;spacingLeft=3;spacingRight=3;rotatable=0;labelPosition=right;points=[];portConstraint=eastwest;strokeColor=inherit;" vertex="1" parent="iOgEmEjlX35Pbioyctjd-1">
          <mxGeometry y="52" width="160" height="8" as="geometry" />
        </mxCell>
        <mxCell id="iOgEmEjlX35Pbioyctjd-4" value="+ method(type): type" style="text;strokeColor=none;fillColor=none;align=left;verticalAlign=top;spacingLeft=4;spacingRight=4;overflow=hidden;rotatable=0;points=[[0,0.5],[1,0.5]];portConstraint=eastwest;whiteSpace=wrap;html=1;" vertex="1" parent="iOgEmEjlX35Pbioyctjd-1">
          <mxGeometry y="60" width="160" height="26" as="geometry" />
        </mxCell>
        <mxCell id="iOgEmEjlX35Pbioyctjd-5" value="Entrada" style="swimlane;fontStyle=1;align=center;verticalAlign=top;childLayout=stackLayout;horizontal=1;startSize=26;horizontalStack=0;resizeParent=1;resizeParentMax=0;resizeLast=0;collapsible=1;marginBottom=0;whiteSpace=wrap;html=1;" vertex="1" parent="1">
          <mxGeometry x="30" y="190" width="160" height="86" as="geometry" />
        </mxCell>
        <mxCell id="iOgEmEjlX35Pbioyctjd-6" value="+ field: type" style="text;strokeColor=none;fillColor=none;align=left;verticalAlign=top;spacingLeft=4;spacingRight=4;overflow=hidden;rotatable=0;points=[[0,0.5],[1,0.5]];portConstraint=eastwest;whiteSpace=wrap;html=1;" vertex="1" parent="iOgEmEjlX35Pbioyctjd-5">
          <mxGeometry y="26" width="160" height="26" as="geometry" />
        </mxCell>
        <mxCell id="iOgEmEjlX35Pbioyctjd-7" value="" style="line;strokeWidth=1;fillColor=none;align=left;verticalAlign=middle;spacingTop=-1;spacingLeft=3;spacingRight=3;rotatable=0;labelPosition=right;points=[];portConstraint=eastwest;strokeColor=inherit;" vertex="1" parent="iOgEmEjlX35Pbioyctjd-5">
          <mxGeometry y="52" width="160" height="8" as="geometry" />
        </mxCell>
        <mxCell id="iOgEmEjlX35Pbioyctjd-8" value="+ method(type): type" style="text;strokeColor=none;fillColor=none;align=left;verticalAlign=top;spacingLeft=4;spacingRight=4;overflow=hidden;rotatable=0;points=[[0,0.5],[1,0.5]];portConstraint=eastwest;whiteSpace=wrap;html=1;" vertex="1" parent="iOgEmEjlX35Pbioyctjd-5">
          <mxGeometry y="60" width="160" height="26" as="geometry" />
        </mxCell>
        <mxCell id="iOgEmEjlX35Pbioyctjd-9" value="Principal" style="swimlane;fontStyle=1;align=center;verticalAlign=top;childLayout=stackLayout;horizontal=1;startSize=26;horizontalStack=0;resizeParent=1;resizeParentMax=0;resizeLast=0;collapsible=1;marginBottom=0;whiteSpace=wrap;html=1;" vertex="1" parent="1">
          <mxGeometry x="210" y="190" width="160" height="86" as="geometry" />
        </mxCell>
        <mxCell id="iOgEmEjlX35Pbioyctjd-10" value="+ field: type" style="text;strokeColor=none;fillColor=none;align=left;verticalAlign=top;spacingLeft=4;spacingRight=4;overflow=hidden;rotatable=0;points=[[0,0.5],[1,0.5]];portConstraint=eastwest;whiteSpace=wrap;html=1;" vertex="1" parent="iOgEmEjlX35Pbioyctjd-9">
          <mxGeometry y="26" width="160" height="26" as="geometry" />
        </mxCell>
        <mxCell id="iOgEmEjlX35Pbioyctjd-11" value="" style="line;strokeWidth=1;fillColor=none;align=left;verticalAlign=middle;spacingTop=-1;spacingLeft=3;spacingRight=3;rotatable=0;labelPosition=right;points=[];portConstraint=eastwest;strokeColor=inherit;" vertex="1" parent="iOgEmEjlX35Pbioyctjd-9">
          <mxGeometry y="52" width="160" height="8" as="geometry" />
        </mxCell>
        <mxCell id="iOgEmEjlX35Pbioyctjd-12" value="+ method(type): type" style="text;strokeColor=none;fillColor=none;align=left;verticalAlign=top;spacingLeft=4;spacingRight=4;overflow=hidden;rotatable=0;points=[[0,0.5],[1,0.5]];portConstraint=eastwest;whiteSpace=wrap;html=1;" vertex="1" parent="iOgEmEjlX35Pbioyctjd-9">
          <mxGeometry y="60" width="160" height="26" as="geometry" />
        </mxCell>
        <mxCell id="iOgEmEjlX35Pbioyctjd-13" value="Postre" style="swimlane;fontStyle=1;align=center;verticalAlign=top;childLayout=stackLayout;horizontal=1;startSize=26;horizontalStack=0;resizeParent=1;resizeParentMax=0;resizeLast=0;collapsible=1;marginBottom=0;whiteSpace=wrap;html=1;" vertex="1" parent="1">
          <mxGeometry x="410" y="190" width="160" height="86" as="geometry" />
        </mxCell>
        <mxCell id="iOgEmEjlX35Pbioyctjd-14" value="+ field: type" style="text;strokeColor=none;fillColor=none;align=left;verticalAlign=top;spacingLeft=4;spacingRight=4;overflow=hidden;rotatable=0;points=[[0,0.5],[1,0.5]];portConstraint=eastwest;whiteSpace=wrap;html=1;" vertex="1" parent="iOgEmEjlX35Pbioyctjd-13">
          <mxGeometry y="26" width="160" height="26" as="geometry" />
        </mxCell>
        <mxCell id="iOgEmEjlX35Pbioyctjd-15" value="" style="line;strokeWidth=1;fillColor=none;align=left;verticalAlign=middle;spacingTop=-1;spacingLeft=3;spacingRight=3;rotatable=0;labelPosition=right;points=[];portConstraint=eastwest;strokeColor=inherit;" vertex="1" parent="iOgEmEjlX35Pbioyctjd-13">
          <mxGeometry y="52" width="160" height="8" as="geometry" />
        </mxCell>
        <mxCell id="iOgEmEjlX35Pbioyctjd-16" value="+ method(type): type" style="text;strokeColor=none;fillColor=none;align=left;verticalAlign=top;spacingLeft=4;spacingRight=4;overflow=hidden;rotatable=0;points=[[0,0.5],[1,0.5]];portConstraint=eastwest;whiteSpace=wrap;html=1;" vertex="1" parent="iOgEmEjlX35Pbioyctjd-13">
          <mxGeometry y="60" width="160" height="26" as="geometry" />
        </mxCell>
        <mxCell id="iOgEmEjlX35Pbioyctjd-17" style="edgeStyle=orthogonalEdgeStyle;rounded=0;orthogonalLoop=1;jettySize=auto;html=1;exitX=0.75;exitY=0;exitDx=0;exitDy=0;entryX=0.017;entryY=0.064;entryDx=0;entryDy=0;entryPerimeter=0;endArrow=block;endFill=0;endSize=8;" edge="1" parent="1" source="iOgEmEjlX35Pbioyctjd-5" target="iOgEmEjlX35Pbioyctjd-4">
          <mxGeometry relative="1" as="geometry" />
        </mxCell>
        <mxCell id="iOgEmEjlX35Pbioyctjd-18" style="edgeStyle=orthogonalEdgeStyle;rounded=0;orthogonalLoop=1;jettySize=auto;html=1;exitX=0.75;exitY=0;exitDx=0;exitDy=0;entryX=0.49;entryY=0.973;entryDx=0;entryDy=0;entryPerimeter=0;endArrow=block;endFill=0;endSize=8;" edge="1" parent="1" source="iOgEmEjlX35Pbioyctjd-9" target="iOgEmEjlX35Pbioyctjd-4">
          <mxGeometry relative="1" as="geometry" />
        </mxCell>
        <mxCell id="iOgEmEjlX35Pbioyctjd-19" style="edgeStyle=orthogonalEdgeStyle;rounded=0;orthogonalLoop=1;jettySize=auto;html=1;exitX=0.25;exitY=0;exitDx=0;exitDy=0;entryX=1.002;entryY=1.115;entryDx=0;entryDy=0;entryPerimeter=0;endArrow=block;endFill=0;endSize=8;" edge="1" parent="1" source="iOgEmEjlX35Pbioyctjd-13" target="iOgEmEjlX35Pbioyctjd-2">
          <mxGeometry relative="1" as="geometry">
            <Array as="points">
              <mxPoint x="460" y="190" />
              <mxPoint x="460" y="125" />
            </Array>
          </mxGeometry>
        </mxCell>
        <mxCell id="iOgEmEjlX35Pbioyctjd-20" value="CanapeChorizo" style="swimlane;fontStyle=1;align=center;verticalAlign=top;childLayout=stackLayout;horizontal=1;startSize=26;horizontalStack=0;resizeParent=1;resizeParentMax=0;resizeLast=0;collapsible=1;marginBottom=0;whiteSpace=wrap;html=1;" vertex="1" parent="1">
          <mxGeometry x="-30" y="300" width="160" height="86" as="geometry" />
        </mxCell>
        <mxCell id="iOgEmEjlX35Pbioyctjd-21" value="+ field: type" style="text;strokeColor=none;fillColor=none;align=left;verticalAlign=top;spacingLeft=4;spacingRight=4;overflow=hidden;rotatable=0;points=[[0,0.5],[1,0.5]];portConstraint=eastwest;whiteSpace=wrap;html=1;" vertex="1" parent="iOgEmEjlX35Pbioyctjd-20">
          <mxGeometry y="26" width="160" height="26" as="geometry" />
        </mxCell>
        <mxCell id="iOgEmEjlX35Pbioyctjd-22" value="" style="line;strokeWidth=1;fillColor=none;align=left;verticalAlign=middle;spacingTop=-1;spacingLeft=3;spacingRight=3;rotatable=0;labelPosition=right;points=[];portConstraint=eastwest;strokeColor=inherit;" vertex="1" parent="iOgEmEjlX35Pbioyctjd-20">
          <mxGeometry y="52" width="160" height="8" as="geometry" />
        </mxCell>
        <mxCell id="iOgEmEjlX35Pbioyctjd-23" value="+ method(type): type" style="text;strokeColor=none;fillColor=none;align=left;verticalAlign=top;spacingLeft=4;spacingRight=4;overflow=hidden;rotatable=0;points=[[0,0.5],[1,0.5]];portConstraint=eastwest;whiteSpace=wrap;html=1;" vertex="1" parent="iOgEmEjlX35Pbioyctjd-20">
          <mxGeometry y="60" width="160" height="26" as="geometry" />
        </mxCell>
        <mxCell id="iOgEmEjlX35Pbioyctjd-24" value="Pebete" style="swimlane;fontStyle=1;align=center;verticalAlign=top;childLayout=stackLayout;horizontal=1;startSize=26;horizontalStack=0;resizeParent=1;resizeParentMax=0;resizeLast=0;collapsible=1;marginBottom=0;whiteSpace=wrap;html=1;" vertex="1" parent="1">
          <mxGeometry x="20" y="410" width="160" height="86" as="geometry" />
        </mxCell>
        <mxCell id="iOgEmEjlX35Pbioyctjd-25" value="+ field: type" style="text;strokeColor=none;fillColor=none;align=left;verticalAlign=top;spacingLeft=4;spacingRight=4;overflow=hidden;rotatable=0;points=[[0,0.5],[1,0.5]];portConstraint=eastwest;whiteSpace=wrap;html=1;" vertex="1" parent="iOgEmEjlX35Pbioyctjd-24">
          <mxGeometry y="26" width="160" height="26" as="geometry" />
        </mxCell>
        <mxCell id="iOgEmEjlX35Pbioyctjd-26" value="" style="line;strokeWidth=1;fillColor=none;align=left;verticalAlign=middle;spacingTop=-1;spacingLeft=3;spacingRight=3;rotatable=0;labelPosition=right;points=[];portConstraint=eastwest;strokeColor=inherit;" vertex="1" parent="iOgEmEjlX35Pbioyctjd-24">
          <mxGeometry y="52" width="160" height="8" as="geometry" />
        </mxCell>
        <mxCell id="iOgEmEjlX35Pbioyctjd-27" value="+ method(type): type" style="text;strokeColor=none;fillColor=none;align=left;verticalAlign=top;spacingLeft=4;spacingRight=4;overflow=hidden;rotatable=0;points=[[0,0.5],[1,0.5]];portConstraint=eastwest;whiteSpace=wrap;html=1;" vertex="1" parent="iOgEmEjlX35Pbioyctjd-24">
          <mxGeometry y="60" width="160" height="26" as="geometry" />
        </mxCell>
        <mxCell id="iOgEmEjlX35Pbioyctjd-28" style="edgeStyle=orthogonalEdgeStyle;rounded=0;orthogonalLoop=1;jettySize=auto;html=1;exitX=0.25;exitY=0;exitDx=0;exitDy=0;endArrow=block;endFill=0;endSize=8;entryX=-0.008;entryY=0.064;entryDx=0;entryDy=0;entryPerimeter=0;" edge="1" parent="1" source="iOgEmEjlX35Pbioyctjd-20" target="iOgEmEjlX35Pbioyctjd-8">
          <mxGeometry relative="1" as="geometry">
            <mxPoint x="-33.53" y="268" as="sourcePoint" />
            <mxPoint x="30" y="240" as="targetPoint" />
            <Array as="points">
              <mxPoint x="10" y="271" />
              <mxPoint x="-10" y="271" />
              <mxPoint x="-10" y="240" />
              <mxPoint x="10" y="240" />
              <mxPoint x="10" y="252" />
            </Array>
          </mxGeometry>
        </mxCell>
        <mxCell id="iOgEmEjlX35Pbioyctjd-29" style="edgeStyle=orthogonalEdgeStyle;rounded=0;orthogonalLoop=1;jettySize=auto;html=1;exitX=0.75;exitY=0;exitDx=0;exitDy=0;entryX=0.878;entryY=1.02;entryDx=0;entryDy=0;entryPerimeter=0;endArrow=block;endFill=0;endSize=8;" edge="1" parent="1" source="iOgEmEjlX35Pbioyctjd-24" target="iOgEmEjlX35Pbioyctjd-8">
          <mxGeometry relative="1" as="geometry" />
        </mxCell>
        <mxCell id="iOgEmEjlX35Pbioyctjd-30" value="PatoNaranja" style="swimlane;fontStyle=1;align=center;verticalAlign=top;childLayout=stackLayout;horizontal=1;startSize=26;horizontalStack=0;resizeParent=1;resizeParentMax=0;resizeLast=0;collapsible=1;marginBottom=0;whiteSpace=wrap;html=1;" vertex="1" parent="1">
          <mxGeometry x="200" y="300" width="160" height="86" as="geometry" />
        </mxCell>
        <mxCell id="iOgEmEjlX35Pbioyctjd-31" value="+ field: type" style="text;strokeColor=none;fillColor=none;align=left;verticalAlign=top;spacingLeft=4;spacingRight=4;overflow=hidden;rotatable=0;points=[[0,0.5],[1,0.5]];portConstraint=eastwest;whiteSpace=wrap;html=1;" vertex="1" parent="iOgEmEjlX35Pbioyctjd-30">
          <mxGeometry y="26" width="160" height="26" as="geometry" />
        </mxCell>
        <mxCell id="iOgEmEjlX35Pbioyctjd-32" value="" style="line;strokeWidth=1;fillColor=none;align=left;verticalAlign=middle;spacingTop=-1;spacingLeft=3;spacingRight=3;rotatable=0;labelPosition=right;points=[];portConstraint=eastwest;strokeColor=inherit;" vertex="1" parent="iOgEmEjlX35Pbioyctjd-30">
          <mxGeometry y="52" width="160" height="8" as="geometry" />
        </mxCell>
        <mxCell id="iOgEmEjlX35Pbioyctjd-33" value="+ method(type): type" style="text;strokeColor=none;fillColor=none;align=left;verticalAlign=top;spacingLeft=4;spacingRight=4;overflow=hidden;rotatable=0;points=[[0,0.5],[1,0.5]];portConstraint=eastwest;whiteSpace=wrap;html=1;" vertex="1" parent="iOgEmEjlX35Pbioyctjd-30">
          <mxGeometry y="60" width="160" height="26" as="geometry" />
        </mxCell>
        <mxCell id="iOgEmEjlX35Pbioyctjd-34" value="Strogonoff" style="swimlane;fontStyle=1;align=center;verticalAlign=top;childLayout=stackLayout;horizontal=1;startSize=26;horizontalStack=0;resizeParent=1;resizeParentMax=0;resizeLast=0;collapsible=1;marginBottom=0;whiteSpace=wrap;html=1;" vertex="1" parent="1">
          <mxGeometry x="230" y="410" width="160" height="86" as="geometry" />
        </mxCell>
        <mxCell id="iOgEmEjlX35Pbioyctjd-35" value="+ field: type" style="text;strokeColor=none;fillColor=none;align=left;verticalAlign=top;spacingLeft=4;spacingRight=4;overflow=hidden;rotatable=0;points=[[0,0.5],[1,0.5]];portConstraint=eastwest;whiteSpace=wrap;html=1;" vertex="1" parent="iOgEmEjlX35Pbioyctjd-34">
          <mxGeometry y="26" width="160" height="26" as="geometry" />
        </mxCell>
        <mxCell id="iOgEmEjlX35Pbioyctjd-36" value="" style="line;strokeWidth=1;fillColor=none;align=left;verticalAlign=middle;spacingTop=-1;spacingLeft=3;spacingRight=3;rotatable=0;labelPosition=right;points=[];portConstraint=eastwest;strokeColor=inherit;" vertex="1" parent="iOgEmEjlX35Pbioyctjd-34">
          <mxGeometry y="52" width="160" height="8" as="geometry" />
        </mxCell>
        <mxCell id="iOgEmEjlX35Pbioyctjd-37" value="+ method(type): type" style="text;strokeColor=none;fillColor=none;align=left;verticalAlign=top;spacingLeft=4;spacingRight=4;overflow=hidden;rotatable=0;points=[[0,0.5],[1,0.5]];portConstraint=eastwest;whiteSpace=wrap;html=1;" vertex="1" parent="iOgEmEjlX35Pbioyctjd-34">
          <mxGeometry y="60" width="160" height="26" as="geometry" />
        </mxCell>
        <mxCell id="iOgEmEjlX35Pbioyctjd-38" style="edgeStyle=orthogonalEdgeStyle;rounded=0;orthogonalLoop=1;jettySize=auto;html=1;exitX=0.25;exitY=0;exitDx=0;exitDy=0;entryX=0.2;entryY=1.043;entryDx=0;entryDy=0;entryPerimeter=0;endArrow=block;endFill=0;endSize=8;" edge="1" parent="1" source="iOgEmEjlX35Pbioyctjd-30" target="iOgEmEjlX35Pbioyctjd-12">
          <mxGeometry relative="1" as="geometry" />
        </mxCell>
        <mxCell id="iOgEmEjlX35Pbioyctjd-39" style="edgeStyle=orthogonalEdgeStyle;rounded=0;orthogonalLoop=1;jettySize=auto;html=1;exitX=0.75;exitY=0;exitDx=0;exitDy=0;entryX=1.013;entryY=1.118;entryDx=0;entryDy=0;entryPerimeter=0;endArrow=block;endFill=0;endSize=8;" edge="1" parent="1" source="iOgEmEjlX35Pbioyctjd-34" target="iOgEmEjlX35Pbioyctjd-10">
          <mxGeometry relative="1" as="geometry">
            <Array as="points">
              <mxPoint x="350" y="400" />
              <mxPoint x="390" y="400" />
              <mxPoint x="390" y="245" />
            </Array>
          </mxGeometry>
        </mxCell>
        <mxCell id="iOgEmEjlX35Pbioyctjd-40" value="Helado" style="swimlane;fontStyle=1;align=center;verticalAlign=top;childLayout=stackLayout;horizontal=1;startSize=26;horizontalStack=0;resizeParent=1;resizeParentMax=0;resizeLast=0;collapsible=1;marginBottom=0;whiteSpace=wrap;html=1;" vertex="1" parent="1">
          <mxGeometry x="400" y="300" width="160" height="86" as="geometry" />
        </mxCell>
        <mxCell id="iOgEmEjlX35Pbioyctjd-41" value="+ field: type" style="text;strokeColor=none;fillColor=none;align=left;verticalAlign=top;spacingLeft=4;spacingRight=4;overflow=hidden;rotatable=0;points=[[0,0.5],[1,0.5]];portConstraint=eastwest;whiteSpace=wrap;html=1;" vertex="1" parent="iOgEmEjlX35Pbioyctjd-40">
          <mxGeometry y="26" width="160" height="26" as="geometry" />
        </mxCell>
        <mxCell id="iOgEmEjlX35Pbioyctjd-42" value="" style="line;strokeWidth=1;fillColor=none;align=left;verticalAlign=middle;spacingTop=-1;spacingLeft=3;spacingRight=3;rotatable=0;labelPosition=right;points=[];portConstraint=eastwest;strokeColor=inherit;" vertex="1" parent="iOgEmEjlX35Pbioyctjd-40">
          <mxGeometry y="52" width="160" height="8" as="geometry" />
        </mxCell>
        <mxCell id="iOgEmEjlX35Pbioyctjd-43" value="+ method(type): type" style="text;strokeColor=none;fillColor=none;align=left;verticalAlign=top;spacingLeft=4;spacingRight=4;overflow=hidden;rotatable=0;points=[[0,0.5],[1,0.5]];portConstraint=eastwest;whiteSpace=wrap;html=1;" vertex="1" parent="iOgEmEjlX35Pbioyctjd-40">
          <mxGeometry y="60" width="160" height="26" as="geometry" />
        </mxCell>
        <mxCell id="iOgEmEjlX35Pbioyctjd-44" style="edgeStyle=orthogonalEdgeStyle;rounded=0;orthogonalLoop=1;jettySize=auto;html=1;exitX=0.75;exitY=0;exitDx=0;exitDy=0;entryX=0.829;entryY=1.043;entryDx=0;entryDy=0;entryPerimeter=0;endSize=8;endArrow=block;endFill=0;" edge="1" parent="1" source="iOgEmEjlX35Pbioyctjd-40" target="iOgEmEjlX35Pbioyctjd-16">
          <mxGeometry relative="1" as="geometry" />
        </mxCell>
        <mxCell id="iOgEmEjlX35Pbioyctjd-45" value="Cheesecake" style="swimlane;fontStyle=1;align=center;verticalAlign=top;childLayout=stackLayout;horizontal=1;startSize=26;horizontalStack=0;resizeParent=1;resizeParentMax=0;resizeLast=0;collapsible=1;marginBottom=0;whiteSpace=wrap;html=1;" vertex="1" parent="1">
          <mxGeometry x="420" y="410" width="160" height="86" as="geometry" />
        </mxCell>
        <mxCell id="iOgEmEjlX35Pbioyctjd-46" value="+ field: type" style="text;strokeColor=none;fillColor=none;align=left;verticalAlign=top;spacingLeft=4;spacingRight=4;overflow=hidden;rotatable=0;points=[[0,0.5],[1,0.5]];portConstraint=eastwest;whiteSpace=wrap;html=1;" vertex="1" parent="iOgEmEjlX35Pbioyctjd-45">
          <mxGeometry y="26" width="160" height="26" as="geometry" />
        </mxCell>
        <mxCell id="iOgEmEjlX35Pbioyctjd-47" value="" style="line;strokeWidth=1;fillColor=none;align=left;verticalAlign=middle;spacingTop=-1;spacingLeft=3;spacingRight=3;rotatable=0;labelPosition=right;points=[];portConstraint=eastwest;strokeColor=inherit;" vertex="1" parent="iOgEmEjlX35Pbioyctjd-45">
          <mxGeometry y="52" width="160" height="8" as="geometry" />
        </mxCell>
        <mxCell id="iOgEmEjlX35Pbioyctjd-48" value="+ method(type): type" style="text;strokeColor=none;fillColor=none;align=left;verticalAlign=top;spacingLeft=4;spacingRight=4;overflow=hidden;rotatable=0;points=[[0,0.5],[1,0.5]];portConstraint=eastwest;whiteSpace=wrap;html=1;" vertex="1" parent="iOgEmEjlX35Pbioyctjd-45">
          <mxGeometry y="60" width="160" height="26" as="geometry" />
        </mxCell>
        <mxCell id="iOgEmEjlX35Pbioyctjd-49" style="edgeStyle=orthogonalEdgeStyle;rounded=0;orthogonalLoop=1;jettySize=auto;html=1;exitX=1;exitY=0;exitDx=0;exitDy=0;entryX=1.003;entryY=0.157;entryDx=0;entryDy=0;entryPerimeter=0;endArrow=block;endFill=0;endSize=8;" edge="1" parent="1" source="iOgEmEjlX35Pbioyctjd-45" target="iOgEmEjlX35Pbioyctjd-16">
          <mxGeometry relative="1" as="geometry">
            <Array as="points">
              <mxPoint x="570" y="410" />
              <mxPoint x="570" y="343" />
              <mxPoint x="590" y="343" />
              <mxPoint x="590" y="254" />
            </Array>
          </mxGeometry>
        </mxCell>
        <mxCell id="iOgEmEjlX35Pbioyctjd-50" value="&lt;div&gt;&amp;lt;&amp;lt;Abstract&amp;gt;&amp;gt;&lt;/div&gt;MenuAFactory" style="swimlane;fontStyle=1;align=center;verticalAlign=top;childLayout=stackLayout;horizontal=1;startSize=44;horizontalStack=0;resizeParent=1;resizeParentMax=0;resizeLast=0;collapsible=1;marginBottom=0;whiteSpace=wrap;html=1;" vertex="1" parent="1">
          <mxGeometry x="550" y="52" width="250" height="110" as="geometry" />
        </mxCell>
        <mxCell id="iOgEmEjlX35Pbioyctjd-52" value="" style="line;strokeWidth=1;fillColor=none;align=left;verticalAlign=middle;spacingTop=-1;spacingLeft=3;spacingRight=3;rotatable=0;labelPosition=right;points=[];portConstraint=eastwest;strokeColor=inherit;" vertex="1" parent="iOgEmEjlX35Pbioyctjd-50">
          <mxGeometry y="44" width="250" height="8" as="geometry" />
        </mxCell>
        <mxCell id="iOgEmEjlX35Pbioyctjd-53" value="+ &amp;lt;&amp;lt;Abstract&amp;gt;&amp;gt;&amp;nbsp;CrearEntrada(): Entrada&lt;div&gt;+ &amp;lt;&amp;lt;Abstract&amp;gt;&amp;gt; CrearPrincipal(): Principal&lt;/div&gt;&lt;div&gt;+&amp;nbsp;&lt;span style=&quot;background-color: initial;&quot;&gt;&amp;lt;&amp;lt;Abstract&amp;gt;&amp;gt;&lt;/span&gt;&lt;span style=&quot;background-color: initial;&quot;&gt;&amp;nbsp;&lt;/span&gt;&lt;span style=&quot;background-color: initial;&quot;&gt;CrearPostre(): Postre&lt;/span&gt;&lt;/div&gt;" style="text;strokeColor=none;fillColor=none;align=left;verticalAlign=top;spacingLeft=4;spacingRight=4;overflow=hidden;rotatable=0;points=[[0,0.5],[1,0.5]];portConstraint=eastwest;whiteSpace=wrap;html=1;" vertex="1" parent="iOgEmEjlX35Pbioyctjd-50">
          <mxGeometry y="52" width="250" height="58" as="geometry" />
        </mxCell>
        <mxCell id="iOgEmEjlX35Pbioyctjd-54" value="&lt;div&gt;&lt;span style=&quot;background-color: initial;&quot;&gt;AbuelaFactory&lt;/span&gt;&lt;br&gt;&lt;/div&gt;" style="swimlane;fontStyle=1;align=center;verticalAlign=top;childLayout=stackLayout;horizontal=1;startSize=30;horizontalStack=0;resizeParent=1;resizeParentMax=0;resizeLast=0;collapsible=1;marginBottom=0;whiteSpace=wrap;html=1;" vertex="1" parent="1">
          <mxGeometry x="620" y="190" width="240" height="100" as="geometry" />
        </mxCell>
        <mxCell id="iOgEmEjlX35Pbioyctjd-56" value="" style="line;strokeWidth=1;fillColor=none;align=left;verticalAlign=middle;spacingTop=-1;spacingLeft=3;spacingRight=3;rotatable=0;labelPosition=right;points=[];portConstraint=eastwest;strokeColor=inherit;" vertex="1" parent="iOgEmEjlX35Pbioyctjd-54">
          <mxGeometry y="30" width="240" height="8" as="geometry" />
        </mxCell>
        <mxCell id="iOgEmEjlX35Pbioyctjd-57" value="+ &amp;lt;&amp;lt;Override&amp;gt;&amp;gt;&amp;nbsp;CrearEntrada(): Entrada&lt;div&gt;+ &amp;lt;&amp;lt;Override&lt;span style=&quot;background-color: initial;&quot;&gt;&amp;gt;&amp;gt; CrearPrincipal(): Principal&lt;/span&gt;&lt;/div&gt;&lt;div&gt;+&amp;nbsp;&lt;span style=&quot;background-color: initial;&quot;&gt;&amp;lt;&amp;lt;&lt;/span&gt;Override&lt;span style=&quot;background-color: initial;&quot;&gt;&amp;gt;&amp;gt;&lt;/span&gt;&lt;span style=&quot;background-color: initial;&quot;&gt;&amp;nbsp;&lt;/span&gt;&lt;span style=&quot;background-color: initial;&quot;&gt;CrearPostre(): Postre&lt;/span&gt;&lt;/div&gt;" style="text;strokeColor=none;fillColor=none;align=left;verticalAlign=top;spacingLeft=4;spacingRight=4;overflow=hidden;rotatable=0;points=[[0,0.5],[1,0.5]];portConstraint=eastwest;whiteSpace=wrap;html=1;" vertex="1" parent="iOgEmEjlX35Pbioyctjd-54">
          <mxGeometry y="38" width="240" height="62" as="geometry" />
        </mxCell>
        <mxCell id="iOgEmEjlX35Pbioyctjd-58" style="edgeStyle=orthogonalEdgeStyle;rounded=0;orthogonalLoop=1;jettySize=auto;html=1;exitX=0.145;exitY=1.014;exitDx=0;exitDy=0;entryX=0.734;entryY=1.076;entryDx=0;entryDy=0;entryPerimeter=0;endArrow=open;endFill=0;dashed=1;exitPerimeter=0;" edge="1" parent="1" source="iOgEmEjlX35Pbioyctjd-57" target="iOgEmEjlX35Pbioyctjd-27">
          <mxGeometry relative="1" as="geometry">
            <Array as="points">
              <mxPoint x="655" y="520" />
              <mxPoint x="137" y="520" />
            </Array>
          </mxGeometry>
        </mxCell>
        <mxCell id="iOgEmEjlX35Pbioyctjd-59" style="edgeStyle=orthogonalEdgeStyle;rounded=0;orthogonalLoop=1;jettySize=auto;html=1;exitX=0;exitY=0.5;exitDx=0;exitDy=0;entryX=0.713;entryY=1.048;entryDx=0;entryDy=0;entryPerimeter=0;endArrow=open;endFill=0;dashed=1;" edge="1" parent="1" target="iOgEmEjlX35Pbioyctjd-37">
          <mxGeometry relative="1" as="geometry">
            <mxPoint x="620" y="233" as="sourcePoint" />
            <Array as="points">
              <mxPoint x="610" y="233" />
              <mxPoint x="610" y="510" />
              <mxPoint x="344" y="510" />
            </Array>
          </mxGeometry>
        </mxCell>
        <mxCell id="iOgEmEjlX35Pbioyctjd-60" style="edgeStyle=orthogonalEdgeStyle;rounded=0;orthogonalLoop=1;jettySize=auto;html=1;exitX=0.342;exitY=1.003;exitDx=0;exitDy=0;dashed=1;endArrow=open;endFill=0;exitPerimeter=0;" edge="1" parent="1" source="iOgEmEjlX35Pbioyctjd-57" target="iOgEmEjlX35Pbioyctjd-43">
          <mxGeometry relative="1" as="geometry" />
        </mxCell>
        <mxCell id="iOgEmEjlX35Pbioyctjd-61" style="edgeStyle=orthogonalEdgeStyle;rounded=0;orthogonalLoop=1;jettySize=auto;html=1;exitX=0.5;exitY=0;exitDx=0;exitDy=0;entryX=0.792;entryY=1.09;entryDx=0;entryDy=0;entryPerimeter=0;endArrow=block;endFill=0;" edge="1" parent="1" source="iOgEmEjlX35Pbioyctjd-54" target="iOgEmEjlX35Pbioyctjd-53">
          <mxGeometry relative="1" as="geometry" />
        </mxCell>
        <mxCell id="iOgEmEjlX35Pbioyctjd-68" style="edgeStyle=orthogonalEdgeStyle;rounded=0;orthogonalLoop=1;jettySize=auto;html=1;exitX=0.75;exitY=1;exitDx=0;exitDy=0;endArrow=open;endFill=0;" edge="1" parent="1" source="iOgEmEjlX35Pbioyctjd-62">
          <mxGeometry relative="1" as="geometry">
            <mxPoint x="440" y="190" as="targetPoint" />
            <Array as="points">
              <mxPoint x="120" y="120" />
              <mxPoint x="160" y="120" />
              <mxPoint x="160" y="175" />
              <mxPoint x="440" y="175" />
              <mxPoint x="440" y="190" />
            </Array>
          </mxGeometry>
        </mxCell>
        <mxCell id="iOgEmEjlX35Pbioyctjd-69" style="edgeStyle=orthogonalEdgeStyle;rounded=0;orthogonalLoop=1;jettySize=auto;html=1;exitX=1;exitY=0.5;exitDx=0;exitDy=0;entryX=0.5;entryY=0;entryDx=0;entryDy=0;endArrow=open;endFill=0;" edge="1" parent="1" source="iOgEmEjlX35Pbioyctjd-62" target="iOgEmEjlX35Pbioyctjd-50">
          <mxGeometry relative="1" as="geometry">
            <Array as="points">
              <mxPoint x="140" y="87" />
              <mxPoint x="140" y="32" />
              <mxPoint x="650" y="32" />
            </Array>
          </mxGeometry>
        </mxCell>
        <mxCell id="iOgEmEjlX35Pbioyctjd-62" value="Comenzal" style="swimlane;fontStyle=1;align=center;verticalAlign=top;childLayout=stackLayout;horizontal=1;startSize=26;horizontalStack=0;resizeParent=1;resizeParentMax=0;resizeLast=0;collapsible=1;marginBottom=0;whiteSpace=wrap;html=1;" vertex="1" parent="1">
          <mxGeometry y="70" width="160" height="34" as="geometry" />
        </mxCell>
        <mxCell id="iOgEmEjlX35Pbioyctjd-64" value="" style="line;strokeWidth=1;fillColor=none;align=left;verticalAlign=middle;spacingTop=-1;spacingLeft=3;spacingRight=3;rotatable=0;labelPosition=right;points=[];portConstraint=eastwest;strokeColor=inherit;" vertex="1" parent="iOgEmEjlX35Pbioyctjd-62">
          <mxGeometry y="26" width="160" height="8" as="geometry" />
        </mxCell>
        <mxCell id="iOgEmEjlX35Pbioyctjd-66" style="edgeStyle=orthogonalEdgeStyle;rounded=0;orthogonalLoop=1;jettySize=auto;html=1;exitX=0.25;exitY=1;exitDx=0;exitDy=0;entryX=0.178;entryY=0.015;entryDx=0;entryDy=0;entryPerimeter=0;endArrow=open;endFill=0;" edge="1" parent="1" source="iOgEmEjlX35Pbioyctjd-62" target="iOgEmEjlX35Pbioyctjd-5">
          <mxGeometry relative="1" as="geometry" />
        </mxCell>
        <mxCell id="iOgEmEjlX35Pbioyctjd-67" style="edgeStyle=orthogonalEdgeStyle;rounded=0;orthogonalLoop=1;jettySize=auto;html=1;exitX=0.5;exitY=1;exitDx=0;exitDy=0;entryX=0.103;entryY=-0.011;entryDx=0;entryDy=0;entryPerimeter=0;endArrow=open;endFill=0;" edge="1" parent="1" source="iOgEmEjlX35Pbioyctjd-62" target="iOgEmEjlX35Pbioyctjd-9">
          <mxGeometry relative="1" as="geometry" />
        </mxCell>
      </root>
    </mxGraphModel>
  </diagram>
</mxfile>
